<svg id="cc0" xmlns="http://www.w3.org/2000/svg" viewBox="0 0 262.87 112.26"><defs><style>.cls-1{fill:#abb2ac;}.cls-2{fill:#010101;}.cls-3{fill:#fff;}</style></defs><path id="f" class="cls-1" d="M244,15l-225.29-.4c-5.15,0-5.66,2.84-5.68,6,0,.13,0,.26,0,.39V91.57a6.51,6.51,0,0,0,2.2,4H247.67a6.47,6.47,0,0,0,2-3.09L249.76,72,250,21.7v-.37C250,14.57,247.13,15,244,15ZM80.53,52.6a27.1,27.1,0,0,1-54.2,0v0a27.1,27.1,0,0,1,54.2,0Zm84.19-30.89c5.76,0,10.43,9.34,10.43,20.86s-4.67,20.87-10.43,20.87-10.44-9.35-10.44-20.87S159,21.71,164.72,21.71Z"/><path id="e" class="cls-2" d="M248.93,72v.29H88.1a6.76,6.76,0,0,0-5.58,2.89,35.26,35.26,0,0,1-58.41-.28,5.75,5.75,0,0,0-4.78-2.61H14.47V72H12.92V90.57a6.63,6.63,0,0,0,.08,1,6.56,6.56,0,0,0,6.46,5.54h224a6.58,6.58,0,0,0,6.27-4.68,6.34,6.34,0,0,0,.27-1.86V72Z"/><path id="d" class="cls-3" d="M139.16,78.09h11.06v2l-7.05,8.53h7.25v2.57H139V89.17l7-8.53h-6.85V78.09Zm13.71,0H162v2.55h-5.75V83.1h5.41v2.55h-5.41v3h5.94v2.57h-9.33V78.09ZM170,83.91a2.38,2.38,0,0,0,1.53-.4,1.64,1.64,0,0,0,.46-1.3,1.59,1.59,0,0,0-.46-1.28,2.38,2.38,0,0,0-1.53-.39h-1.43v3.37Zm-1.43,2.34v5h-3.38V78.09h5.17a6.48,6.48,0,0,1,3.8.87,3.15,3.15,0,0,1,1.22,2.75,3.46,3.46,0,0,1-.63,2.14,3.65,3.65,0,0,1-1.9,1.23,2.31,2.31,0,0,1,1.24.73,6.47,6.47,0,0,1,1.12,1.68l1.84,3.74h-3.61L171.85,88a3.62,3.62,0,0,0-1-1.35,2.16,2.16,0,0,0-1.31-.36Zm16.49-6a2.85,2.85,0,0,0-2.41,1.14,5.33,5.33,0,0,0-.85,3.22,5.27,5.27,0,0,0,.85,3.22,3.12,3.12,0,0,0,4.82,0,5.34,5.34,0,0,0,.85-3.22,5.4,5.4,0,0,0-.85-3.22,2.85,2.85,0,0,0-2.41-1.14Zm0-2.46a6.7,6.7,0,0,1,5,1.81,7.89,7.89,0,0,1,0,10,7.68,7.68,0,0,1-9.93,0,7.89,7.89,0,0,1,0-10,6.74,6.74,0,0,1,5-1.81Z"/><path id="c" class="cls-2" d="M75.46,30.52a30,30,0,0,1,9,22.08,29.52,29.52,0,0,1-8.86,21.84,30.64,30.64,0,0,1-22.22,9.24,29.78,29.78,0,0,1-21.83-9.17A29.86,29.86,0,0,1,22.39,52.6a30.4,30.4,0,0,1,9.17-22.08,29.54,29.54,0,0,1,21.83-9A30,30,0,0,1,75.46,30.52ZM35.6,34.57a24.8,24.8,0,0,0-7.62,18,24.43,24.43,0,0,0,7.54,17.87,24.57,24.57,0,0,0,18,7.54A24.93,24.93,0,0,0,71.6,70.4a23.72,23.72,0,0,0,7.3-17.79A25.33,25.33,0,0,0,53.48,27.1,24,24,0,0,0,35.6,34.57ZM49,49.57A3.72,3.72,0,0,0,45.48,47c-2.74,0-4.11,1.85-4.11,5.53s1.37,5.53,4.11,5.53a4,4,0,0,0,3.88-2.69l3.8,2A8.79,8.79,0,0,1,45,62.24a9,9,0,0,1-6.71-2.56,9.7,9.7,0,0,1-2.52-7.08,9.52,9.52,0,0,1,2.6-7.05,8.77,8.77,0,0,1,6.48-2.61c3.83,0,6.56,1.51,8.22,4.53Zm17.86,0c-.77-1.7-1.91-2.54-3.4-2.54-2.8,0-4.2,1.85-4.2,5.53s1.4,5.53,4.2,5.53a3.83,3.83,0,0,0,3.8-2.69l3.88,2A8.78,8.78,0,0,1,63,62.24a8.94,8.94,0,0,1-6.7-2.56,9.7,9.7,0,0,1-2.52-7.08,9.65,9.65,0,0,1,2.55-7.05,8.74,8.74,0,0,1,6.51-2.61q5.73,0,8.21,4.53Z"/><path id="b" class="cls-2" d="M165.39,19.64c-13.14,0-16.45,12.41-16.45,22.92s3.31,22.92,16.45,22.92,16.45-12.4,16.45-22.92S178.54,19.64,165.39,19.64Zm0,8.65a5.76,5.76,0,0,1,1.48.19,2.51,2.51,0,0,1,.5,3.51l-8.76,16.1a44.57,44.57,0,0,1-.31-5.53C158.3,37.93,158.63,28.29,165.39,28.29Zm6.55,7.41a37.7,37.7,0,0,1,.53,6.86c0,4.64-.32,14.28-7.08,14.28a5.7,5.7,0,0,1-1.47-.17,2,2,0,0,1-.26-.08l-.41-.14c-1.52-.64-2.46-1.8-1.09-3.84Z"/><path id="a" class="cls-2" d="M243.41,99.11H19.46A8.57,8.57,0,0,1,11,91.87a8.59,8.59,0,0,1-.1-1.3V21.7A8,8,0,0,1,11,20.31a8.47,8.47,0,0,1,8.42-7.15h224A8.56,8.56,0,0,1,252,21.65V90.57a8.28,8.28,0,0,1-.36,2.44,8.57,8.57,0,0,1-8.18,6.1ZM19.46,17.16A4.5,4.5,0,0,0,15,21a4.68,4.68,0,0,0-.06.73V90.57a4.62,4.62,0,0,0,.06.7,4.58,4.58,0,0,0,4.48,3.84h224a4.59,4.59,0,0,0,4.35-3.25,4.33,4.33,0,0,0,.19-1.29V21.67a4.55,4.55,0,0,0-4.54-4.51Z"/></svg>