<svg xmlns="http://www.w3.org/2000/svg" viewBox="0 0 1000 700"><defs><style>.cls-1{fill:#f9f7f7;}.cls-2{fill:#494368;}.cls-3{fill:#cca6c4;}</style></defs><g id="Layer_1" data-name="Layer 1"><path class="cls-1" d="M626.78,42.76V78h14.07V87.9h-25.8V42.76h11.73m0-11.33H615.05a11.34,11.34,0,0,0-11.34,11.33V87.9a11.34,11.34,0,0,0,11.34,11.33h25.8A11.34,11.34,0,0,0,652.19,87.9V78a11.34,11.34,0,0,0-11.34-11.34h-2.73V42.76a11.34,11.34,0,0,0-11.34-11.33Zm29.63,11.33V87.9H644.68V42.76h11.73m0-11.33H644.68a11.34,11.34,0,0,0-11.34,11.33V87.9a11.34,11.34,0,0,0,11.34,11.33h11.73A11.34,11.34,0,0,0,667.75,87.9V42.76a11.34,11.34,0,0,0-11.34-11.33Zm117,11.33q7.07,0,11.37,3.48t4.31,10.41a13.76,13.76,0,0,1-2.6,8.38,11.08,11.08,0,0,1-7.27,4.37l14.18,18.5h-14.6L767.68,70.54h-.12V87.9H755.83V42.76h17.54M767.56,63h1.14a20.36,20.36,0,0,0,3-.21A8.29,8.29,0,0,0,774.3,62a4.56,4.56,0,0,0,1.85-1.74,6.31,6.31,0,0,0,0-5.74,4.56,4.56,0,0,0-1.85-1.74,8.29,8.29,0,0,0-2.58-.81,20.36,20.36,0,0,0-3-.21h-1.14V63m5.81-31.57H755.83a11.34,11.34,0,0,0-11.34,11.33V87.9a11.34,11.34,0,0,0,11.34,11.33h11.73a11.27,11.27,0,0,0,5.6-1.47,11.36,11.36,0,0,0,5.6,1.47h14.6a11.34,11.34,0,0,0,9-18.24l-6.93-9,.15-.2a24.92,24.92,0,0,0,4.81-15.11c0-10.22-4.64-16.11-8.53-19.24-4.93-4-11.15-6-18.49-6ZM735.18,42.76l17,45.14H739.67l-2.93-7.85H720.58l-3.12,7.85H705l17.36-45.14h12.81M723.81,71.08h9.76l-4.79-14.37h-.12l-4.85,14.37m11.37-39.65H722.37a11.32,11.32,0,0,0-10.58,7.26L694.43,83.83A11.34,11.34,0,0,0,705,99.23h12.45A11.33,11.33,0,0,0,728,92.08l.28-.69h.59l.18.48a11.34,11.34,0,0,0,10.62,7.36h12.51A11.32,11.32,0,0,0,762.79,83.9l-17-45.13a11.33,11.33,0,0,0-10.61-7.34ZM680.71,42.76a23.22,23.22,0,0,1,8.86,1.71,22.53,22.53,0,0,1,12.3,12.06,22.1,22.1,0,0,1,1.77,8.8,21.78,21.78,0,0,1-1.8,8.8,22.35,22.35,0,0,1-5,7.21,23.13,23.13,0,0,1-7.36,4.82,22.72,22.72,0,0,1-8.8,1.74H664.07V42.76h16.64M675.8,78h2.64a16.4,16.4,0,0,0,5-.75,11.72,11.72,0,0,0,4.13-2.3,10.75,10.75,0,0,0,2.81-4,14.35,14.35,0,0,0,1-5.6q0-5.92-3.54-9.28a13,13,0,0,0-9.33-3.35H675.8V78m4.91-46.53H664.07a11.34,11.34,0,0,0-11.34,11.33V87.9a11.34,11.34,0,0,0,11.34,11.33h16.64a34,34,0,0,0,13.14-2.6,34.58,34.58,0,0,0,10.93-7.16,33.78,33.78,0,0,0,7.46-10.82A33.12,33.12,0,0,0,715,65.33,33.77,33.77,0,0,0,693.85,34a34.66,34.66,0,0,0-13.14-2.54Z"/><path class="cls-1" d="M570.58,48h0a8.21,8.21,0,0,1,6.06,2.53,8.29,8.29,0,0,1,2.52,6.06V70.74H547.29v7a1.43,1.43,0,0,0,1.44,1.44h30.43v7.14H548.73a8.2,8.2,0,0,1-6.06-2.52,8.29,8.29,0,0,1-2.52-6.06V56.58a8.2,8.2,0,0,1,2.52-6.06A8.3,8.3,0,0,1,548.73,48h21.85M547.29,63.6H572v-7a1.43,1.43,0,0,0-1.44-1.44H548.73a1.43,1.43,0,0,0-1.44,1.44v7M369.07,48h0a8.21,8.21,0,0,1,6.06,2.53,8.29,8.29,0,0,1,2.52,6.06V70.74H345.79v7a1.43,1.43,0,0,0,1.44,1.44h30.42v7.14H347.23a8.2,8.2,0,0,1-6.06-2.52,8.29,8.29,0,0,1-2.52-6.06V56.58a8.2,8.2,0,0,1,2.52-6.06A8.3,8.3,0,0,1,347.23,48h21.84M345.79,63.6h24.72v-7a1.43,1.43,0,0,0-1.44-1.44H347.23a1.43,1.43,0,0,0-1.44,1.44v7M258.48,48h0a8.21,8.21,0,0,1,6.06,2.53,8.29,8.29,0,0,1,2.52,6.06V86.34H236.64a8.2,8.2,0,0,1-6.06-2.52,8.29,8.29,0,0,1-2.52-6.06V63.6h31.86v-7a1.43,1.43,0,0,0-1.44-1.44H228.06V48h30.42M236.64,79.2h23.28V70.74H235.2v7a1.43,1.43,0,0,0,1.44,1.44M524.67,48a8.21,8.21,0,0,1,6.06,2.53,8.29,8.29,0,0,1,2.52,6.06V86.34h-7.08V56.58a1.32,1.32,0,0,0-.42-1,1.45,1.45,0,0,0-1.08-.42H509.55a1.43,1.43,0,0,0-1.44,1.44V86.34H501V56.58a1.43,1.43,0,0,0-1.44-1.44H484.35a1.43,1.43,0,0,0-1.44,1.44V86.34h-7.14V48h48.9m-64.51,0a8.21,8.21,0,0,1,6.06,2.53,8.29,8.29,0,0,1,2.52,6.06V77.76a8.2,8.2,0,0,1-2.52,6.06,8.29,8.29,0,0,1-6.06,2.52H438.32a8.2,8.2,0,0,1-6.06-2.52,8.29,8.29,0,0,1-2.52-6.06V56.58a8.2,8.2,0,0,1,2.52-6.06A8.3,8.3,0,0,1,438.32,48h21.84M438.32,79.2h21.84a1.43,1.43,0,0,0,1.44-1.44V56.58a1.32,1.32,0,0,0-.42-1,1.57,1.57,0,0,0-1-.42H438.32a1.43,1.43,0,0,0-1.44,1.44V77.76a1.43,1.43,0,0,0,1.44,1.44M336.37,48,322,86.34h-5.82l-12.91-28.5-12.18,28.5-.12-.06.06.06h-5.76L270.18,48h7.56l10.38,25.45,11-25.45h8.17L319,73.44,328.75,48h7.62m78.25.06a8.21,8.21,0,0,1,6.06,2.53,8.1,8.1,0,0,1,2.52,6.06v1.44h-7.14V56.64a1.43,1.43,0,0,0-1.44-1.44H392.78a1.43,1.43,0,0,0-1.44,1.44v5.58a1.43,1.43,0,0,0,1.44,1.44h21.84a8.2,8.2,0,0,1,6.06,2.52,8.29,8.29,0,0,1,2.52,6.06v5.58a8.2,8.2,0,0,1-2.52,6.06,8.29,8.29,0,0,1-6.06,2.52H392.78a8.6,8.6,0,0,1-8.59-8.58V76.38h7.15v1.44a1.43,1.43,0,0,0,1.44,1.44h21.84a1.43,1.43,0,0,0,1.44-1.44V72.24a1.43,1.43,0,0,0-1.44-1.44H392.78a8.6,8.6,0,0,1-8.59-8.58V56.64a8.2,8.2,0,0,1,2.52-6.06,8.33,8.33,0,0,1,6.07-2.53h21.84m156-11.39H548.73a19.47,19.47,0,0,0-12,4,19.45,19.45,0,0,0-12-4h-48.9a11.25,11.25,0,0,0-6.61,2.12,19.59,19.59,0,0,0-9-2.12H438.32a19.45,19.45,0,0,0-11.89,3.93,19.49,19.49,0,0,0-11.81-3.87H392.78A19.49,19.49,0,0,0,381,40.59a19.45,19.45,0,0,0-11.89-3.93H347.23a20.18,20.18,0,0,0-6.25,1,11.44,11.44,0,0,0-4.61-1h-7.62A11.33,11.33,0,0,0,318.16,44l-.1.25-.43-.94a11.33,11.33,0,0,0-10.3-6.6h-8.17a11.35,11.35,0,0,0-10.4,6.82l-.31.73-.21-.5a11.34,11.34,0,0,0-10.5-7.05h-7.56a11.32,11.32,0,0,0-5,1.14,19.88,19.88,0,0,0-6.74-1.14H228.06A11.33,11.33,0,0,0,216.72,48v7.15a11.45,11.45,0,0,0,.81,4.23,11.38,11.38,0,0,0-.81,4.23V77.76a19.94,19.94,0,0,0,19.92,19.92h30.42a11.32,11.32,0,0,0,9.09-4.56,11.37,11.37,0,0,0,9.09,4.56h5.82a11.37,11.37,0,0,0,10.43-6.88L303.54,86l2.28,5a11.33,11.33,0,0,0,10.33,6.66H322A11.33,11.33,0,0,0,332.32,91c.27.3.55.59.83.88a19.53,19.53,0,0,0,14.08,5.84h30.42a11.3,11.3,0,0,0,6.36-2,19.65,19.65,0,0,0,8.77,2h21.84a19.4,19.4,0,0,0,11.89-3.94,19.43,19.43,0,0,0,11.81,3.88h21.84a19.59,19.59,0,0,0,9-2.12,11.33,11.33,0,0,0,6.61,2.12h7.14a11.33,11.33,0,0,0,9-4.48,11.32,11.32,0,0,0,9,4.48h7.14a11.33,11.33,0,0,0,9-4.48,11.33,11.33,0,0,0,9,4.48h7.08a11.26,11.26,0,0,0,6.56-2.09,19.55,19.55,0,0,0,8.92,2.09h30.43A11.34,11.34,0,0,0,590.5,86.34V79.2a11.22,11.22,0,0,0-.82-4.23,11.26,11.26,0,0,0,.82-4.23V56.58a20,20,0,0,0-19.92-19.92ZM448.22,66.47h2v1.39h-2V66.47Z"/><path class="cls-1" d="M385.05,107.22l18.62,20.3L293.36,228.74H728.15L617.84,127.61l18.62-20.3L768.83,228.74v80c0,36.18-34.86,65.65-77.66,65.65H609.55c-42.8,0-77.66-29.47-77.66-65.65v-52.6H489.53v52.6c0,36.18-34.86,65.65-77.66,65.65H330.24c-42.79,0-77.65-29.47-77.65-65.65v-80h.09L385.05,107.22m0-11.34a11.3,11.3,0,0,0-7.67,3L245.82,219.64a11.32,11.32,0,0,0-4.57,9.1v80c0,42.45,39.92,77,89,77h81.63c49.08,0,89-34.54,89-77V267.52h19.68v41.26c0,42.45,39.92,77,89,77h81.62c49.08,0,89-34.54,89-77v-80a11.35,11.35,0,0,0-3.67-8.36L644.13,99a11.35,11.35,0,0,0-16,.69l-18.62,20.3a11.32,11.32,0,0,0,.69,16L699,217.4H322.49l88.84-81.53a11.34,11.34,0,0,0,.69-16L393.4,99.56a11.32,11.32,0,0,0-7.87-3.67Z"/><rect class="cls-1" x="228.06" y="433.41" width="99.68" height="85.32" rx="11.61"/><rect class="cls-1" x="383.26" y="433.41" width="99.68" height="85.32" rx="11.61"/><rect class="cls-1" x="538.47" y="433.41" width="99.68" height="85.32" rx="11.61"/><rect class="cls-1" x="693.68" y="433.41" width="99.68" height="85.32" rx="11.61"/><rect class="cls-1" x="228.06" y="544.41" width="99.68" height="85.32" rx="11.61"/><rect class="cls-1" x="383.26" y="544.41" width="99.68" height="85.32" rx="11.61"/><rect class="cls-1" x="538.47" y="544.41" width="99.68" height="85.32" rx="11.61"/><rect class="cls-1" x="693.68" y="544.41" width="99.68" height="85.32" rx="11.61"/><path class="cls-2" d="M258.48,48a8.21,8.21,0,0,1,6.06,2.53,8.29,8.29,0,0,1,2.52,6.06V86.34H236.64a8.2,8.2,0,0,1-6.06-2.52,8.29,8.29,0,0,1-2.52-6.06V63.6h31.86v-7a1.43,1.43,0,0,0-1.44-1.44H228.06V48Zm1.44,31.21V70.74H235.2v7a1.43,1.43,0,0,0,1.44,1.44ZM328.75,48h7.62L322,86.34h-5.82l-12.91-28.5-12.18,28.5-.12-.06.06.06h-5.76L270.18,48h7.56l10.38,25.45,11-25.45h8.17L319,73.44Zm40.32,0a8.21,8.21,0,0,1,6.06,2.53,8.29,8.29,0,0,1,2.52,6.06V70.74H345.79v7a1.43,1.43,0,0,0,1.44,1.44h30.42v7.14H347.23a8.2,8.2,0,0,1-6.06-2.52,8.29,8.29,0,0,1-2.52-6.06V56.58a8.2,8.2,0,0,1,2.52-6.06A8.3,8.3,0,0,1,347.23,48ZM345.79,63.6h24.72v-7a1.43,1.43,0,0,0-1.44-1.44H347.23a1.43,1.43,0,0,0-1.44,1.44v7Zm77.41-7v1.44h-7.14V56.64a1.43,1.43,0,0,0-1.44-1.44H392.78a1.43,1.43,0,0,0-1.44,1.44v5.58a1.43,1.43,0,0,0,1.44,1.44h21.84a8.2,8.2,0,0,1,6.06,2.52,8.29,8.29,0,0,1,2.52,6.06v5.58a8.2,8.2,0,0,1-2.52,6.06,8.29,8.29,0,0,1-6.06,2.52H392.78a8.6,8.6,0,0,1-8.59-8.58V76.38h7.15v1.44a1.43,1.43,0,0,0,1.44,1.44h21.84a1.43,1.43,0,0,0,1.44-1.44V72.24a1.43,1.43,0,0,0-1.44-1.44H392.78a8.6,8.6,0,0,1-8.59-8.58V56.64a8.2,8.2,0,0,1,2.52-6.06,8.33,8.33,0,0,1,6.07-2.53h21.84a8.62,8.62,0,0,1,8.58,8.59ZM438.32,48h21.84a8.21,8.21,0,0,1,6.06,2.53,8.29,8.29,0,0,1,2.52,6.06V77.76a8.2,8.2,0,0,1-2.52,6.06,8.29,8.29,0,0,1-6.06,2.52H438.32a8.2,8.2,0,0,1-6.06-2.52,8.29,8.29,0,0,1-2.52-6.06V56.58a8.2,8.2,0,0,1,2.52-6.06A8.3,8.3,0,0,1,438.32,48Zm21.84,7.15H438.32a1.43,1.43,0,0,0-1.44,1.44V77.76a1.43,1.43,0,0,0,1.44,1.44h21.84a1.43,1.43,0,0,0,1.44-1.44V56.58a1.32,1.32,0,0,0-.42-1A1.57,1.57,0,0,0,460.16,55.14ZM524.67,48a8.21,8.21,0,0,1,6.06,2.53,8.29,8.29,0,0,1,2.52,6.06V86.34h-7.08V56.58a1.32,1.32,0,0,0-.42-1,1.45,1.45,0,0,0-1.08-.42H509.55a1.43,1.43,0,0,0-1.44,1.44V86.34H501V56.58a1.43,1.43,0,0,0-1.44-1.44H484.35a1.43,1.43,0,0,0-1.44,1.44V86.34h-7.14V48Zm45.91,0a8.21,8.21,0,0,1,6.06,2.53,8.29,8.29,0,0,1,2.52,6.06V70.74H547.29v7a1.43,1.43,0,0,0,1.44,1.44h30.43v7.14H548.73a8.2,8.2,0,0,1-6.06-2.52,8.29,8.29,0,0,1-2.52-6.06V56.58a8.2,8.2,0,0,1,2.52-6.06A8.3,8.3,0,0,1,548.73,48ZM547.29,63.6H572v-7a1.43,1.43,0,0,0-1.44-1.44H548.73a1.43,1.43,0,0,0-1.44,1.44v7Z"/><path class="cls-2" d="M626.78,78h14.07V87.9h-25.8V42.76h11.73Z"/><path class="cls-2" d="M656.41,87.9H644.68V42.76h11.73Z"/><path class="cls-2" d="M664.07,42.76h16.64a23.22,23.22,0,0,1,8.86,1.71,22.53,22.53,0,0,1,12.3,12.06,22.1,22.1,0,0,1,1.77,8.8,21.78,21.78,0,0,1-1.8,8.8,22.35,22.35,0,0,1-5,7.21,23.13,23.13,0,0,1-7.36,4.82,22.72,22.72,0,0,1-8.8,1.74H664.07ZM675.8,78h2.64a16.4,16.4,0,0,0,5-.75,11.72,11.72,0,0,0,4.13-2.3,10.75,10.75,0,0,0,2.81-4,14.35,14.35,0,0,0,1-5.6q0-5.92-3.54-9.28a13,13,0,0,0-9.33-3.35H675.8Z"/><path class="cls-2" d="M720.58,80.05l-3.12,7.85H705l17.36-45.14h12.81l17,45.14H739.67l-2.93-7.85Zm8.2-23.34h-.12l-4.85,14.37h9.76Z"/><path class="cls-2" d="M793.36,87.9h-14.6L767.68,70.54h-.12V87.9H755.83V42.76h17.54q7.07,0,11.37,3.48t4.31,10.41a13.76,13.76,0,0,1-2.6,8.38,11.08,11.08,0,0,1-7.27,4.37ZM767.56,63h1.14a20.36,20.36,0,0,0,3-.21A8.29,8.29,0,0,0,774.3,62a4.56,4.56,0,0,0,1.85-1.74,6.31,6.31,0,0,0,0-5.74,4.56,4.56,0,0,0-1.85-1.74,8.29,8.29,0,0,0-2.58-.81,20.36,20.36,0,0,0-3-.21h-1.14Z"/><path class="cls-3" d="M768.83,228.74,636.46,107.31l-18.62,20.3L728.15,228.74H293.36L403.67,127.52l-18.62-20.3L252.68,228.74h-.09v80c0,36.18,34.86,65.65,77.65,65.65h81.63c42.8,0,77.66-29.47,77.66-65.65v-52.6h42.36v52.6c0,36.18,34.86,65.65,77.66,65.65h81.62c42.8,0,77.66-29.47,77.66-65.65Z"/><path class="cls-2" d="M713.31,578a3.78,3.78,0,1,1,0-7.55h11.33a7.56,7.56,0,0,1,7.55,7.55Zm7.55,34a11.27,11.27,0,1,0-8-3.3A11,11,0,0,0,720.86,612Zm51,0a5.63,5.63,0,1,0-4-1.65A5.46,5.46,0,0,0,771.85,612Zm-51-5.67a5.65,5.65,0,1,1,4-1.65A5.46,5.46,0,0,1,720.86,606.33Zm52.87-13.12a15.81,15.81,0,0,1,4.06,1.28,15.08,15.08,0,0,1,3.5,2.59V574.23a7.58,7.58,0,0,0-7.56-7.55H749.94l-4-4.16,5.28-5.28-2.64-2.65L735.21,568l2.83,2.64,5.29-5.28,4,4V578a7.58,7.58,0,0,1-7.56,7.55H732.1a17.71,17.71,0,0,1,3.49,3.31,27.65,27.65,0,0,1,2.64,4.25h1.51A15.16,15.16,0,0,0,754.85,578v-3.78h18.88Zm-15,11.24a17.71,17.71,0,0,1,1.37-4.11,17.27,17.27,0,0,1,2.5-3.45H739.37a19.49,19.49,0,0,1,0,7.56Zm13.13,15.1a13.21,13.21,0,1,1,9.34-3.87A12.73,12.73,0,0,1,771.85,619.55Zm-51,0A18.85,18.85,0,1,1,734.22,614,18.21,18.21,0,0,1,720.86,619.55Z"/><path class="cls-2" d="M743.52,447a125,125,0,0,1,18.3,1.4,181.67,181.67,0,0,1,20.85,4.48L775,493.37l-6.85-1.32,6.41-34A169.22,169.22,0,0,0,757.92,455a107.37,107.37,0,0,0-28.8,0,169.22,169.22,0,0,0-16.68,3.07l6.41,34L712,493.37l-7.64-40.47a181.67,181.67,0,0,1,20.85-4.48A125,125,0,0,1,743.52,447Zm17.65,58.11-5.8-3.86,1.14-1.85a6.07,6.07,0,0,0,.79-1.62,5.85,5.85,0,0,0,.27-1.8,6.6,6.6,0,0,0-.44-2.37,5.84,5.84,0,0,0-1.32-2,13.07,13.07,0,0,1-2.85-4.26,12.82,12.82,0,0,1-1-5,13,13,0,0,1,.57-3.87,14.68,14.68,0,0,1,1.62-3.51l1.14-1.75,5.89,3.86-1.23,1.84a5.56,5.56,0,0,0-.75,1.63,6.83,6.83,0,0,0-.22,1.8,6.6,6.6,0,0,0,.44,2.37,5.7,5.7,0,0,0,1.32,2A13.19,13.19,0,0,1,764,499.86a14.34,14.34,0,0,1-1.63,3.51Zm-14.75,0-5.8-3.86,1.14-1.85a5.78,5.78,0,0,0,.79-1.62,5.85,5.85,0,0,0,.27-1.8,6.6,6.6,0,0,0-.44-2.37,5.7,5.7,0,0,0-1.32-2,13.21,13.21,0,0,1-3.29-13.17,14.68,14.68,0,0,1,1.62-3.51l1.15-1.75,5.88,3.86-1.23,1.84a5.56,5.56,0,0,0-.75,1.63,7.27,7.27,0,0,0-.22,1.8,6.6,6.6,0,0,0,.44,2.37,5.7,5.7,0,0,0,1.32,2,13.19,13.19,0,0,1,3.29,13.16,14.68,14.68,0,0,1-1.62,3.51Zm-14.66,0-5.88-3.86,1.22-1.85a5.78,5.78,0,0,0,.79-1.62,5.85,5.85,0,0,0,.27-1.8,6,6,0,0,0-.48-2.37,6.45,6.45,0,0,0-1.37-2,13.23,13.23,0,0,1-2.85-4.26,13,13,0,0,1-1-5,14.07,14.07,0,0,1,.53-3.87,12,12,0,0,1,1.67-3.51l1.23-1.75,5.88,3.86-1.23,1.84a5,5,0,0,0-.79,1.58,6.27,6.27,0,0,0-.27,1.85,6.6,6.6,0,0,0,.44,2.37,6,6,0,0,0,1.32,2,13.19,13.19,0,0,1,3.29,13.16,14.68,14.68,0,0,1-1.62,3.51Z"/><path class="cls-2" d="M254.39,614.33a10.79,10.79,0,0,1-10.82-10.83h-7.22V571a7.24,7.24,0,0,1,7.22-7.22h50.51l21.64,21.65v18h-7.21a10.83,10.83,0,1,1-21.65,0H265.22a10.79,10.79,0,0,1-10.83,10.83Zm32.47-32.47h14.43L290.47,571h-3.61Zm-21.64,0h14.43V571H265.22Zm-21.65,0H258V571H243.57ZM254.39,608a4.53,4.53,0,1,0-4.51-4.51,4.46,4.46,0,0,0,4.51,4.51Zm43.29,0a4.46,4.46,0,1,0-3.2-1.3A4.37,4.37,0,0,0,297.68,608Zm-54.11-11.72h2.89a12.49,12.49,0,0,1,3.51-2.62,10.36,10.36,0,0,1,8.84,0,12.53,12.53,0,0,1,3.52,2.62h27.42a12.49,12.49,0,0,1,3.51-2.62,10.36,10.36,0,0,1,8.84,0,12.39,12.39,0,0,1,3.52,2.62h2.89v-7.22H243.57Zm64.94-7.22h0Z"/><path class="cls-2" d="M415.54,618.86a13.64,13.64,0,0,1-10.09-4.21,14,14,0,0,1-4.13-10.17,14.1,14.1,0,0,1,14.22-14.23,14.5,14.5,0,0,1,6.44,1.51,11.66,11.66,0,0,0,1.19-4.77,11.3,11.3,0,0,0-.87-4.76,13.85,13.85,0,0,1-3.18,1.19,15.32,15.32,0,0,1-3.5.4A14.33,14.33,0,1,1,429.49,573a15,15,0,0,1-1.23,3.18,11.84,11.84,0,0,0,4.77.91,11.3,11.3,0,0,0,4.76-1.15,15,15,0,0,1-1.11-3.06,14.48,14.48,0,0,1-.4-3.38,14.12,14.12,0,0,1,14.23-14.22,14,14,0,0,1,10.17,4.13,13.6,13.6,0,0,1,4.21,10.09,14.37,14.37,0,0,1-14.38,14.38,13.35,13.35,0,0,1-3.62-.47,15.69,15.69,0,0,1-3.3-1.35,11.42,11.42,0,0,0-.95,4.88,13,13,0,0,0,1.19,5,15,15,0,0,1,3.18-1.23,13.81,13.81,0,0,1,3.5-.44,14,14,0,0,1,10.17,4.13,13.6,13.6,0,0,1,4.21,10.1,14.37,14.37,0,0,1-14.38,14.38,13.6,13.6,0,0,1-10.09-4.21,14,14,0,0,1-4.14-10.17,13.81,13.81,0,0,1,.44-3.5A15,15,0,0,1,438,597.8a13.55,13.55,0,0,0-5-1.23,10.83,10.83,0,0,0-4.89.91,15.38,15.38,0,0,1,1.35,3.34,14.34,14.34,0,0,1-3.73,13.83A13.9,13.9,0,0,1,415.54,618.86Zm35-41.32a8,8,0,0,0,8-8,7.49,7.49,0,0,0-2.34-5.6,7.87,7.87,0,0,0-5.68-2.26,7.74,7.74,0,0,0-7.87,7.86,7.42,7.42,0,0,0,.12,1.31c.08.45.17.89.28,1.31l4.77-4.76a3,3,0,0,1,2.22-1,3.15,3.15,0,0,1,2.23,5.41l-4.93,5a5.2,5.2,0,0,0,1.51.56A9,9,0,0,0,450.51,577.54Zm-34.89-.08a6.66,6.66,0,0,0,1.51-.16,10.18,10.18,0,0,0,1.35-.4l-5.08-5.08a3,3,0,0,1-.95-2.23,3.26,3.26,0,0,1,3.17-3.18,3.05,3.05,0,0,1,2.23,1l5.16,5.08a8.75,8.75,0,0,0,.4-1.39,7.21,7.21,0,0,0,.16-1.55,8,8,0,1,0-7.95,8Zm34.89,35a8,8,0,0,0,8-8,7.49,7.49,0,0,0-2.34-5.61,7.87,7.87,0,0,0-5.68-2.26,9.06,9.06,0,0,0-1.51.12,7,7,0,0,0-1.35.36l5.24,5.24a3.06,3.06,0,0,1,0,4.45,3.3,3.3,0,0,1-2.3,1,3,3,0,0,1-2.23-1l-5.16-5.16a10.18,10.18,0,0,0-.4,1.35,6.66,6.66,0,0,0-.16,1.51,7.9,7.9,0,0,0,2.27,5.68A7.47,7.47,0,0,0,450.51,612.5Zm-35,0a8,8,0,0,0,8-8,8.7,8.7,0,0,0-.16-1.71,4.79,4.79,0,0,0-.56-1.55l-5.56,5.56a3.18,3.18,0,1,1-4.53-4.45l5.33-5.32c-.43-.11-.85-.2-1.27-.28a6.93,6.93,0,0,0-1.28-.12,7.72,7.72,0,0,0-7.86,7.87,7.89,7.89,0,0,0,2.26,5.68A7.49,7.49,0,0,0,415.54,612.5Zm17.57-22.25a3.11,3.11,0,1,0-2.27-.91A3.06,3.06,0,0,0,433.11,590.25Z"/><path class="cls-2" d="M563.78,620.88a7,7,0,0,1-7-7v-35a20.93,20.93,0,0,1,21-21h21a20.95,20.95,0,0,1,21,21v35a7,7,0,0,1-7,7Zm0-7h49.07v-35a14,14,0,0,0-14-14h-21a14,14,0,0,0-14,14Zm14-24.53a7,7,0,1,1,5-2.06A6.75,6.75,0,0,1,577.8,589.34Zm21,0a7,7,0,1,1,4.95-2.06A6.75,6.75,0,0,1,598.83,589.34Zm-28,24.53v-7a7,7,0,0,1,7-7h21a7,7,0,0,1,7,7v7h-7v-7h-7v7h-7v-7h-7v7Zm-7,0h0Z"/><path class="cls-2" d="M278.65,512.32q-15.21,0-25.73-4.68T242.4,496.21V455.93q0-6.65,10.62-11.37t25.63-4.74q15,0,25.62,4.74t10.63,11.37v40.28q0,6.75-10.53,11.43T278.65,512.32Zm0-48.23a65.93,65.93,0,0,0,18-2.57q9.06-2.56,10.17-5.48-1.11-2.93-10.12-5.54a63.9,63.9,0,0,0-36.05-.05Q251.87,453,250.45,456q1.41,3,10.22,5.53A65.12,65.12,0,0,0,278.65,464.09Zm0,20c2.82,0,5.53-.14,8.15-.4a72.75,72.75,0,0,0,7.5-1.16,57.06,57.06,0,0,0,6.75-1.86,39.69,39.69,0,0,0,5.79-2.52V466.1a39.69,39.69,0,0,1-5.79,2.52,53.47,53.47,0,0,1-6.75,1.86,70.13,70.13,0,0,1-7.5,1.16,79.39,79.39,0,0,1-8.15.41,82.46,82.46,0,0,1-8.26-.41,69.37,69.37,0,0,1-7.6-1.16,51.32,51.32,0,0,1-6.7-1.86,36.81,36.81,0,0,1-5.64-2.52v12.09a36.81,36.81,0,0,0,5.64,2.52,54.67,54.67,0,0,0,6.7,1.86,71.87,71.87,0,0,0,7.6,1.16C273.07,484,275.83,484.13,278.65,484.13Zm0,20.14a64.55,64.55,0,0,0,9.41-.71,67.74,67.74,0,0,0,8.81-1.86,33.88,33.88,0,0,0,6.75-2.62q2.72-1.45,3.22-3v-9.87a39.69,39.69,0,0,1-5.79,2.52,53.47,53.47,0,0,1-6.75,1.86,70.13,70.13,0,0,1-7.5,1.16,79.44,79.44,0,0,1-8.15.4,82.5,82.5,0,0,1-8.26-.4,69.37,69.37,0,0,1-7.6-1.16,51.32,51.32,0,0,1-6.7-1.86,36.81,36.81,0,0,1-5.64-2.52v10c.34,1,1.39,2,3.17,2.92a35.27,35.27,0,0,0,6.7,2.57,67.51,67.51,0,0,0,8.86,1.86A65.57,65.57,0,0,0,278.65,504.27Z"/><path class="cls-2" d="M429.78,499.8V477l-19.95-11.56v22.78Zm6.65,0,19.95-11.55V465.47L436.43,477Zm-3.32-28.51,19.7-11.39-19.7-11.38L413.4,459.9Zm-26.6,22.78a6.62,6.62,0,0,1-2.46-2.41,6.52,6.52,0,0,1-.87-3.33V461.9a6.52,6.52,0,0,1,.87-3.33,6.7,6.7,0,0,1,2.46-2.41l23.27-13.38a6.53,6.53,0,0,1,6.65,0l23.28,13.38a6.67,6.67,0,0,1,2.45,2.41,6.52,6.52,0,0,1,.87,3.33v26.43a6.52,6.52,0,0,1-.87,3.33,6.59,6.59,0,0,1-2.45,2.41l-23.28,13.38a6.47,6.47,0,0,1-6.65,0Z"/><path class="cls-2" d="M572.09,497.34h13v-13h-13Zm19.47,0h13v-13h-13Zm-19.47-19.47h13v-13h-13Zm19.47,0h13v-13h-13Zm-26,32.44a6.5,6.5,0,0,1-6.49-6.48V458.41a6.5,6.5,0,0,1,6.49-6.49H611a6.49,6.49,0,0,1,6.49,6.49v45.42a6.49,6.49,0,0,1-6.49,6.48Zm0-6.48H611V458.41H565.6Zm0-45.42v0Z"/></g></svg>