<?xml version="1.0" encoding="utf-8"?>
<!-- Generator: Adobe Illustrator 22.0.1, SVG Export Plug-In . SVG Version: 6.00 Build 0)  -->
<svg version="1.1" id="Layer_1" xmlns="http://www.w3.org/2000/svg" xmlns:xlink="http://www.w3.org/1999/xlink" x="0px" y="0px"
	 viewBox="0 0 380 384" style="enable-background:new 0 0 380 384;" xml:space="preserve">
<style type="text/css">
	.st0{fill:#F7F7F7;}
	.st1{fill:none;stroke:#1B2743;stroke-linecap:round;stroke-linejoin:round;stroke-miterlimit:10;}
</style>
<path class="st0" d="M139.8,318.3L139.8,318.3c0-0.2,0-0.4-0.1-0.6v-56.4c0-4.4-2.3-8.6-6.6-12.1l3.4-6.2c1.2-1.7,1.8-3.6,1.8-5.5
	v-14.7c0-0.4-0.1-0.9-0.3-1.3c-2.2-8.9-17.8-15.1-38.2-15.1c-21.9,0-38.5,7.4-38.5,17.2c0,0.1,0,0.3,0,0.5c0.1,1,0.2,4.9,0,13.3
	c0,1.1,0.1,2.1,0.5,3.1c0,0.1,0.1,0.2,0.1,0.3c0.5,1.2,1.2,2.4,2.2,3.5l1.9,3c-0.1,0-0.1,0.1-0.2,0.1l-22.7,11.7
	c-1.1,0.6-1.9,1.8-1.9,3L40.4,321c0,1.1,0.5,2.2,1.5,2.9l23.5,16.8c0.1,0.1,0.2,0.2,0.3,0.2c0.3,0.2,0.6,0.4,0.9,0.6l0.6,0.4
	c0.4,0.3,0.9,0.5,1.4,0.6c7.5,3.9,18.4,6.2,29.8,6.2c23.6,0,41.4-9.4,41.4-21.8v-7.1C139.8,319,139.8,318.4,139.8,318.3z"/>
<ellipse class="st1" cx="99.8" cy="223.7" rx="35.4" ry="13.8"/>
<path class="st1" d="M64.4,223.7c0,0,0.3,3.9,0,13.9c-0.2,7.6,15.9,13.8,35.4,13.8s35.4-6.2,35.4-13.8v-14.8"/>
<ellipse class="st1" cx="99.8" cy="221.8" rx="21.5" ry="8.4"/>
<path class="st1" d="M46.5,236.4"/>
<path class="st1" d="M134.7,239.9l-9.1,16.6c-0.2,0.3-0.2,0.7-0.4,1.1c-3.1,5.4-11.7,9.1-24.7,9.1c-13.5,0-21.2-3.6-24.4-9.5
	l-11.4-17.6"/>
<path class="st1" d="M128.9,250.4c4.9,3.1,7.8,6.9,7.8,11.1c0,10.2-17.2,18.4-38.4,18.4s-38.4-8.2-38.4-18.4
	c0-4.9,4.1-9.4,10.7-12.7"/>
<path class="st1" d="M136.7,327.5c0,10.2-17.2,18.4-38.4,18.4c-12.8,0-24.3-2.8-31.3-7.4"/>
<line class="st1" x1="136.7" y1="327.5" x2="136.7" y2="261.5"/>
<path class="st1" d="M66.9,338.5l-23.8-16.9l0.9-59L61.7,273c0,0-2.3-5.1-1.9-11.5"/>
<line class="st1" x1="44" y1="262.5" x2="65.2" y2="252"/>
<path class="st1" d="M43.6,302.5l18.8,19.1c0,0,17.6,23,48,19.5c26.9-3,26.3-22.3,26.3-22.3"/>
<path class="st1" d="M136.6,281.5c0,0-3.1,9.4-18.7,12.1s-38,1.9-46.3-2.9c-8.4-4.9-27.6-17.2-27.6-17.2"/>
<path id="bg_1_" class="st0" d="M91.4,31.6c-29.4,0-59.7,8.2-59.7,21.8v78.5c0,14.2,26.2,25.3,59.7,25.3s59.7-11.1,59.7-25.3V53.4
	C151.1,39.8,120.8,31.6,91.4,31.6z"/>
<ellipse class="st1" cx="91.5" cy="53.8" rx="57.3" ry="19.7"/>
<path class="st1" d="M148.8,70.5c0,10.9-25.7,19.7-57.3,19.7s-57.3-8.8-57.3-19.7"/>
<path class="st1" d="M148.8,113.5c0,11.3-25.7,20.4-57.3,20.4s-57.3-9.1-57.3-20.4"/>
<path class="st1" d="M34.2,53.8v78c0,12.8,25.7,23.2,57.3,23.2s57.3-10.4,57.3-23.2v-78"/>
<path id="bg_2_" class="st0" d="M273.4,218.6c-29.9,0-60.7,7.9-60.7,21.1v75.9c0,13.7,26.7,24.5,60.7,24.5s60.7-10.7,60.7-24.5
	v-75.9C334.1,226.5,303.3,218.6,273.4,218.6z"/>
<ellipse class="st1" cx="273.6" cy="239.5" rx="57.8" ry="18.7"/>
<path class="st1" d="M331.8,248.5c0,10.5-26.1,19-58.3,19s-58.3-8.5-58.3-19"/>
<path class="st1" d="M331.8,308.9c0,10.9-26.1,19.7-58.3,19.7s-58.3-8.8-58.3-19.7"/>
<path class="st1" d="M215.2,240v75.3c0,12.4,26.1,22.4,58.3,22.4s58.3-10,58.3-22.4V240"/>
<path class="st0" d="M331.1,113c0-0.3-0.1-0.5-0.2-0.8l-1.7-4l0.1-3c0-0.3-0.1-0.7-0.2-1l-4.4-8.5l0.4-26.1c0.1-0.8,0.1-1.5,0.1-2.2
	c0-0.6,0-1.1-0.1-1.7l0,0c0-0.2,0-0.4-0.1-0.5c-2-16.5-25.6-29.4-54-29.4c-29.8,0-54.1,14.2-54.1,31.8c0,0.4,0,0.9,0.1,1.4
	c0,0.1-0.1,0.3-0.1,0.5l-0.4,26.2l-4.4,8.6c-0.2,0.3-0.2,0.6-0.2,1l0.1,3l-1.7,4c-0.1,0.2-0.2,0.5-0.2,0.8l-0.1,10.3
	c0,1,0.8,1.9,1.8,2l0.3,0v6.6c0,0.5,0.2,1.1,0.6,1.4c0.4,0.4,0.9,0.6,1.5,0.6c1.1,0,2.2,0,3,0.1v5.9c0,0.6,0.2,1.1,0.6,1.5
	c0.4,0.4,1,0.6,1.5,0.5c2.6-0.2,5.5-0.1,6.9,0.2v4.9c0,0.6,0.3,1.2,0.8,1.6c0.5,0.4,1.1,0.5,1.7,0.3c3-0.8,7.7-1.3,9.5-0.3v3
	c0,0.6,0.3,1.2,0.8,1.6c0.5,0.4,1.1,0.5,1.7,0.4c3.5-0.8,9.2-1.3,11,0.2c0.3,0.2,0.5,0.5,0.5,1.2c0,0.9,0.6,1.7,1.4,1.9l1.9,0.6
	c0.7,0.2,1.4,0,1.9-0.4c0,0,3.1-2.8,6.2-2.5c1.5,0.2,2.7,1,3.9,2.6c0.4,0.5,0.9,0.8,1.6,0.8l2.1,0.1c0,0,0.1,0,0.1,0
	c0.6,0,1.2-0.3,1.6-0.8l0.1-0.1c0.1-0.1,0.2-0.2,0.3-0.3c1.1-1.6,2.4-2.5,3.9-2.6c3.1-0.3,6.2,2.4,6.2,2.5c0.5,0.5,1.3,0.6,1.9,0.4
	l1.9-0.6c0.9-0.3,1.4-1,1.4-1.9c0-0.7,0.2-1,0.5-1.2c1.8-1.5,7.6-1,11-0.2c0.6,0.1,1.2,0,1.7-0.4c0.5-0.4,0.8-1,0.8-1.6v-3
	c1.8-1,6.4-0.5,9.5,0.3c0.6,0.2,1.2,0,1.7-0.3c0.5-0.4,0.8-1,0.8-1.6v-4.9c1.4-0.3,4.3-0.4,6.9-0.2c0.6,0,1.1-0.1,1.5-0.5
	c0.4-0.4,0.6-0.9,0.6-1.5v-5.9c0.8-0.1,1.9-0.1,3-0.1c0.5,0,1.1-0.2,1.5-0.6s0.6-0.9,0.6-1.4v-6.2l0.3,0c1-0.1,1.8-1,1.8-2
	L331.1,113z"/>
<ellipse class="st1" cx="271.3" cy="67.4" rx="52.1" ry="29.8"/>
<ellipse class="st1" cx="271.7" cy="66.9" rx="47.8" ry="26.4"/>
<path class="st1" d="M219.2,69.2l-0.5,30.8c0,0.6,0,1.2,0.1,1.8c1.7,15.4,24.3,27.5,52,27.5c27.8,0,50.6-12.3,52-27.8l0.5-36.1"/>
<path class="st1" d="M246.5,114.8"/>
<polyline class="st1" points="218.8,95.9 214.1,104.9 214.2,108.4 212.3,112.8 212.3,123.1 214.1,123.3 "/>
<path class="st1" d="M214.4,121.8v9.9c0,0,4.5-0.2,5.1,0.6v7.4c0,0,7.3-0.6,9.1,0.8v6.3c0,0,9.3-2.5,12,0.7v3.9c0,0,14.1-3.3,14,3.4
	l1.9,0.6c0,0,7.8-7.1,13.1,0.5l2.1,0.1"/>
<path class="st1" d="M213.4,112.5c0,0,2.8-8.8,5-8.7c2.2,0.1-4,17-4,17l0.7,0.9c0,0,3.7-10.8,7-10.3c3.3,0.4-1.8,17.8-1.8,17.8
	l0.8,0.8c0,0,5.1-13.2,7.6-11.7c2.5,1.4,0.3,18.6,0.3,18.6l1,0.3c0,0,6.2-15.5,8.6-14c2.4,1.5,3.8,16.1,2.5,18.7l1.3,0.8
	c0,0,4.3-17.3,8.3-15.9c4,1.3,4.2,18.8,4.2,18.8l1.8,0.5c0,0,3.3-18.5,6.9-17.1c3.7,1.4,5.7,17.1,6,17.7l1.8,0"/>
<polyline class="st1" points="322.8,96 327.5,105.1 327.4,108.5 329.3,112.9 329.3,123.2 327.5,123.4 326.1,120.9 "/>
<path class="st1" d="M327.2,121.5v9.9c0,0-4.5-0.2-5.1,0.6v7.4c0,0-7.3-0.6-9.1,0.8v6.3c0,0-9.3-2.5-12,0.7v3.9c0,0-14.1-3.3-14,3.4
	l-1.9,0.6c0,0-7.8-7.1-13.1,0.5"/>
<path class="st1" d="M328.6,113.3c0,0-2.9-8.5-5.1-8.4c-2.2,0.1,4.1,16.5,4.1,16.5l-0.7,0.9c0,0-3.7-10.4-7.1-10s1.9,17.3,1.9,17.3
	l-0.9,0.7c0,0-5.2-12.8-7.7-11.4s-0.3,18-0.3,18l-1,0.3c0,0-6.3-15-8.8-13.6c-2.5,1.5-3.9,15.6-2.6,18.1l-1.4,0.7
	c0,0-4.3-16.7-8.4-15.4c-4.1,1.3-4.3,18.2-4.3,18.2l-1.8,0.5c0,0-3.3-17.9-7.1-16.5s-5.8,16.5-6.1,17.1"/>
<line class="st1" x1="219.8" y1="134.6" x2="220.8" y2="129.5"/>
<line class="st1" x1="228.8" y1="141.4" x2="229.5" y2="137"/>
<line class="st1" x1="240.6" y1="147.4" x2="241.9" y2="141.9"/>
<path class="st1" d="M254.6,154.8c0.1-0.7,1-9.5,1-9.5"/>
<line class="st1" x1="270.5" y1="155.9" x2="270.5" y2="146.6"/>
<line class="st1" x1="285.8" y1="154.6" x2="285.2" y2="145.4"/>
<line class="st1" x1="301" y1="151.1" x2="299" y2="141.5"/>
<line class="st1" x1="313" y1="140.3" x2="311.3" y2="136.5"/>
<line class="st1" x1="322.1" y1="132" x2="320.2" y2="129.2"/>
<ellipse class="st1" cx="273.5" cy="239.1" rx="53.9" ry="15.5"/>
</svg>
